<svg aria-hidden="true" style="position: absolute; width: 0; height: 0; overflow: hidden;" version="1.1" xmlns="http://www.w3.org/2000/svg" xmlns:xlink="http://www.w3.org/1999/xlink">
<defs>
<symbol id="logo-text" viewBox="0 0 63 32">
<path d="M3.212 0l2.655 8.697h0.099l2.655-8.697h3.212l-4.006 11.874h-3.821l-4.006-11.874h3.212z"></path>
<path d="M16.2 12.042c-0.935 0-1.739-0.191-2.412-0.574-0.669-0.386-1.185-0.924-1.548-1.612-0.359-0.692-0.539-1.494-0.539-2.406 0-0.916 0.18-1.718 0.539-2.406 0.363-0.692 0.879-1.229 1.548-1.612 0.673-0.387 1.476-0.58 2.412-0.58s1.737 0.193 2.406 0.58c0.673 0.383 1.189 0.92 1.548 1.612 0.363 0.688 0.545 1.49 0.545 2.406 0 0.912-0.182 1.714-0.545 2.406-0.359 0.688-0.875 1.225-1.548 1.612-0.669 0.383-1.471 0.574-2.406 0.574zM16.218 9.903c0.34 0 0.628-0.104 0.864-0.313s0.416-0.499 0.539-0.87c0.128-0.371 0.191-0.8 0.191-1.287 0-0.495-0.064-0.928-0.191-1.299-0.124-0.371-0.303-0.661-0.539-0.87s-0.524-0.313-0.864-0.313c-0.352 0-0.649 0.104-0.893 0.313-0.24 0.209-0.423 0.499-0.551 0.87-0.124 0.371-0.186 0.804-0.186 1.299 0 0.487 0.062 0.916 0.186 1.287 0.128 0.371 0.311 0.661 0.551 0.87 0.243 0.209 0.541 0.313 0.893 0.313z"></path>
<path d="M26.309 12.042c-0.935 0-1.739-0.191-2.412-0.574-0.669-0.386-1.185-0.924-1.548-1.612-0.359-0.692-0.539-1.494-0.539-2.406 0-0.916 0.18-1.718 0.539-2.406 0.363-0.692 0.879-1.229 1.548-1.612 0.673-0.387 1.477-0.58 2.412-0.58s1.737 0.193 2.406 0.58c0.673 0.383 1.189 0.92 1.548 1.612 0.363 0.688 0.545 1.49 0.545 2.406 0 0.912-0.182 1.714-0.545 2.406-0.359 0.688-0.875 1.225-1.548 1.612-0.669 0.383-1.471 0.574-2.406 0.574zM26.326 9.903c0.34 0 0.628-0.104 0.864-0.313s0.416-0.499 0.539-0.87c0.128-0.371 0.191-0.8 0.191-1.287 0-0.495-0.064-0.928-0.191-1.299-0.124-0.371-0.303-0.661-0.539-0.87s-0.524-0.313-0.864-0.313c-0.352 0-0.649 0.104-0.893 0.313-0.24 0.209-0.423 0.499-0.551 0.87-0.124 0.371-0.186 0.804-0.186 1.299 0 0.487 0.062 0.916 0.186 1.287 0.128 0.371 0.311 0.661 0.551 0.87 0.244 0.209 0.541 0.313 0.893 0.313z"></path>
<path d="M36.649 11.874h-4.389v-11.874h4.383c1.21 0 2.251 0.238 3.125 0.713 0.877 0.472 1.554 1.152 2.029 2.041 0.475 0.885 0.713 1.944 0.713 3.177 0 1.237-0.238 2.3-0.713 3.189-0.471 0.889-1.146 1.571-2.023 2.047-0.877 0.472-1.919 0.707-3.125 0.707zM35.13 9.427h1.409c0.665 0 1.227-0.112 1.687-0.336 0.464-0.228 0.813-0.597 1.049-1.107 0.24-0.514 0.359-1.198 0.359-2.052s-0.12-1.534-0.359-2.041c-0.239-0.51-0.593-0.877-1.061-1.102-0.464-0.228-1.036-0.342-1.716-0.342h-1.368v6.98z"></path>
<path d="M48.343 12.042c-0.935 0-1.739-0.191-2.412-0.574-0.669-0.386-1.185-0.924-1.548-1.612-0.359-0.692-0.539-1.494-0.539-2.406 0-0.916 0.18-1.718 0.539-2.406 0.363-0.692 0.879-1.229 1.548-1.612 0.673-0.387 1.477-0.58 2.412-0.58s1.737 0.193 2.406 0.58c0.673 0.383 1.189 0.92 1.548 1.612 0.363 0.688 0.545 1.49 0.545 2.406 0 0.912-0.182 1.714-0.545 2.406-0.359 0.688-0.875 1.225-1.548 1.612-0.669 0.383-1.471 0.574-2.406 0.574zM48.361 9.903c0.34 0 0.628-0.104 0.864-0.313s0.416-0.499 0.539-0.87c0.128-0.371 0.191-0.8 0.191-1.287 0-0.495-0.064-0.928-0.191-1.299-0.123-0.371-0.303-0.661-0.539-0.87s-0.524-0.313-0.864-0.313c-0.352 0-0.649 0.104-0.893 0.313-0.24 0.209-0.423 0.499-0.551 0.87-0.123 0.371-0.185 0.804-0.185 1.299 0 0.487 0.062 0.916 0.185 1.287 0.128 0.371 0.311 0.661 0.551 0.87 0.244 0.209 0.541 0.313 0.893 0.313z"></path>
<path d="M58.452 12.042c-0.935 0-1.739-0.191-2.412-0.574-0.669-0.386-1.185-0.924-1.548-1.612-0.359-0.692-0.539-1.494-0.539-2.406 0-0.916 0.18-1.718 0.539-2.406 0.363-0.692 0.879-1.229 1.548-1.612 0.673-0.387 1.477-0.58 2.412-0.58s1.737 0.193 2.406 0.58c0.673 0.383 1.189 0.92 1.548 1.612 0.363 0.688 0.545 1.49 0.545 2.406 0 0.912-0.182 1.714-0.545 2.406-0.359 0.688-0.875 1.225-1.548 1.612-0.669 0.383-1.471 0.574-2.406 0.574zM58.469 9.903c0.34 0 0.628-0.104 0.864-0.313s0.416-0.499 0.539-0.87c0.128-0.371 0.191-0.8 0.191-1.287 0-0.495-0.064-0.928-0.191-1.299-0.123-0.371-0.303-0.661-0.539-0.87s-0.524-0.313-0.864-0.313c-0.352 0-0.649 0.104-0.893 0.313-0.24 0.209-0.423 0.499-0.551 0.87-0.123 0.371-0.185 0.804-0.185 1.299 0 0.487 0.062 0.916 0.185 1.287 0.128 0.371 0.311 0.661 0.551 0.87 0.244 0.209 0.541 0.313 0.893 0.313z"></path>
<path d="M0.128 22.249v-2.331h10.036v2.331h-3.6v9.543h-2.829v-9.543h-3.606z"></path>
<path d="M14.436 31.96c-0.931 0-1.735-0.184-2.412-0.551-0.673-0.371-1.19-0.899-1.554-1.583-0.359-0.688-0.539-1.506-0.539-2.452 0-0.92 0.182-1.724 0.545-2.412 0.363-0.692 0.875-1.229 1.536-1.612 0.661-0.387 1.44-0.58 2.337-0.58 0.634 0 1.214 0.099 1.739 0.296s0.98 0.489 1.362 0.875c0.383 0.387 0.68 0.864 0.893 1.432 0.213 0.564 0.319 1.212 0.319 1.942v0.707h-7.74v-1.647h5.102c-0.004-0.302-0.075-0.57-0.215-0.806s-0.33-0.419-0.574-0.551c-0.24-0.135-0.516-0.203-0.829-0.203-0.317 0-0.601 0.071-0.852 0.215-0.251 0.139-0.45 0.33-0.597 0.574-0.147 0.24-0.224 0.512-0.232 0.817v1.676c0 0.363 0.072 0.682 0.215 0.957 0.143 0.271 0.346 0.481 0.609 0.632s0.576 0.226 0.939 0.226c0.251 0 0.479-0.035 0.684-0.104s0.381-0.172 0.528-0.307 0.257-0.302 0.33-0.499l2.603 0.075c-0.108 0.584-0.346 1.092-0.713 1.525-0.363 0.429-0.841 0.763-1.432 1.003-0.591 0.236-1.276 0.354-2.052 0.354z"></path>
<path d="M27.886 25.606l-2.603 0.070c-0.027-0.186-0.101-0.35-0.22-0.493-0.12-0.147-0.276-0.261-0.47-0.342-0.189-0.085-0.41-0.128-0.661-0.128-0.329 0-0.609 0.066-0.841 0.197-0.228 0.131-0.34 0.309-0.336 0.533-0.004 0.174 0.066 0.325 0.209 0.452 0.147 0.128 0.408 0.23 0.783 0.307l1.716 0.325c0.889 0.17 1.55 0.452 1.983 0.846 0.437 0.394 0.657 0.916 0.661 1.565-0.004 0.611-0.186 1.142-0.545 1.594-0.356 0.452-0.843 0.804-1.461 1.055-0.618 0.247-1.326 0.371-2.122 0.371-1.272 0-2.275-0.261-3.009-0.783-0.731-0.526-1.148-1.229-1.252-2.11l2.8-0.070c0.062 0.325 0.222 0.572 0.481 0.742s0.589 0.255 0.991 0.255c0.363 0 0.659-0.068 0.887-0.203s0.344-0.315 0.348-0.539c-0.004-0.201-0.093-0.361-0.267-0.481-0.174-0.124-0.446-0.22-0.817-0.29l-1.554-0.296c-0.893-0.162-1.558-0.462-1.994-0.899-0.437-0.441-0.653-1.001-0.649-1.681-0.004-0.595 0.155-1.104 0.475-1.525 0.321-0.425 0.777-0.75 1.368-0.974s1.289-0.336 2.093-0.336c1.206 0 2.157 0.253 2.852 0.759 0.696 0.502 1.080 1.194 1.154 2.076z"></path>
<path d="M34.529 22.887v2.087h-5.618v-2.087h5.618zM30.088 20.753h2.835v8.239c0 0.174 0.027 0.315 0.081 0.423 0.058 0.104 0.141 0.18 0.249 0.226 0.108 0.043 0.238 0.064 0.388 0.064 0.108 0 0.222-0.010 0.342-0.029 0.124-0.023 0.217-0.043 0.278-0.058l0.429 2.047c-0.135 0.039-0.327 0.087-0.574 0.145-0.243 0.058-0.535 0.095-0.875 0.11-0.665 0.031-1.235-0.046-1.71-0.232-0.472-0.189-0.833-0.483-1.084-0.881-0.247-0.398-0.367-0.899-0.359-1.502v-8.552z"></path>
</symbol>
<symbol id="logo" viewBox="0 0 82 32">
<path d="M7.347 14.694c-4.051 0-7.347-3.296-7.347-7.347s3.296-7.347 7.347-7.347c4.051 0 7.347 3.296 7.347 7.347s-3.296 7.347-7.347 7.347zM7.347 1.061c-3.466 0-6.286 2.82-6.286 6.286s2.82 6.286 6.286 6.286c3.466 0 6.286-2.82 6.286-6.286s-2.82-6.286-6.286-6.286z"></path>
<path d="M5.691 4.898l1.465 4.783h0.054l1.465-4.783h1.773l-2.211 6.531h-2.109l-2.211-6.531h1.773z"></path>
<path d="M21.824 0l2.655 8.697h0.099l2.655-8.697h3.212l-4.006 11.874h-3.821l-4.006-11.874h3.212z"></path>
<path d="M34.813 12.042c-0.935 0-1.739-0.191-2.412-0.574-0.669-0.386-1.185-0.924-1.548-1.612-0.359-0.692-0.539-1.494-0.539-2.406 0-0.916 0.18-1.718 0.539-2.406 0.363-0.692 0.879-1.229 1.548-1.612 0.672-0.387 1.476-0.58 2.412-0.58s1.737 0.193 2.406 0.58c0.673 0.383 1.189 0.92 1.548 1.612 0.363 0.688 0.545 1.49 0.545 2.406 0 0.912-0.182 1.714-0.545 2.406-0.359 0.688-0.875 1.225-1.548 1.612-0.668 0.383-1.471 0.574-2.406 0.574zM34.83 9.903c0.34 0 0.628-0.104 0.864-0.313s0.415-0.499 0.539-0.87c0.128-0.371 0.191-0.8 0.191-1.287 0-0.495-0.064-0.928-0.191-1.299-0.124-0.371-0.303-0.661-0.539-0.87s-0.524-0.313-0.864-0.313c-0.352 0-0.649 0.104-0.893 0.313-0.24 0.209-0.423 0.499-0.551 0.87-0.124 0.371-0.185 0.804-0.185 1.299 0 0.487 0.062 0.916 0.185 1.287 0.128 0.371 0.311 0.661 0.551 0.87 0.243 0.209 0.541 0.313 0.893 0.313z"></path>
<path d="M44.921 12.042c-0.935 0-1.739-0.191-2.412-0.574-0.668-0.386-1.185-0.924-1.548-1.612-0.359-0.692-0.539-1.494-0.539-2.406 0-0.916 0.18-1.718 0.539-2.406 0.363-0.692 0.879-1.229 1.548-1.612 0.673-0.387 1.477-0.58 2.412-0.58s1.737 0.193 2.406 0.58c0.673 0.383 1.189 0.92 1.548 1.612 0.363 0.688 0.545 1.49 0.545 2.406 0 0.912-0.182 1.714-0.545 2.406-0.359 0.688-0.875 1.225-1.548 1.612-0.668 0.383-1.471 0.574-2.406 0.574zM44.938 9.903c0.34 0 0.628-0.104 0.864-0.313s0.415-0.499 0.539-0.87c0.128-0.371 0.191-0.8 0.191-1.287 0-0.495-0.064-0.928-0.191-1.299-0.124-0.371-0.303-0.661-0.539-0.87s-0.524-0.313-0.864-0.313c-0.352 0-0.649 0.104-0.893 0.313-0.24 0.209-0.423 0.499-0.551 0.87-0.124 0.371-0.185 0.804-0.185 1.299 0 0.487 0.062 0.916 0.185 1.287 0.128 0.371 0.311 0.661 0.551 0.87 0.243 0.209 0.541 0.313 0.893 0.313z"></path>
<path d="M55.261 11.874h-4.389v-11.874h4.383c1.21 0 2.251 0.238 3.125 0.713 0.877 0.472 1.554 1.152 2.029 2.041 0.475 0.885 0.713 1.944 0.713 3.177 0 1.237-0.238 2.3-0.713 3.189-0.471 0.889-1.146 1.571-2.023 2.047-0.877 0.472-1.919 0.707-3.125 0.707zM53.742 9.427h1.409c0.665 0 1.227-0.112 1.687-0.336 0.464-0.228 0.813-0.597 1.049-1.107 0.24-0.514 0.359-1.198 0.359-2.052s-0.12-1.534-0.359-2.041c-0.239-0.51-0.593-0.877-1.061-1.102-0.464-0.228-1.036-0.342-1.716-0.342h-1.368v6.98z"></path>
<path d="M66.955 12.042c-0.935 0-1.739-0.191-2.412-0.574-0.669-0.386-1.185-0.924-1.548-1.612-0.359-0.692-0.539-1.494-0.539-2.406 0-0.916 0.18-1.718 0.539-2.406 0.363-0.692 0.879-1.229 1.548-1.612 0.673-0.387 1.477-0.58 2.412-0.58s1.737 0.193 2.406 0.58c0.673 0.383 1.189 0.92 1.548 1.612 0.363 0.688 0.545 1.49 0.545 2.406 0 0.912-0.182 1.714-0.545 2.406-0.359 0.688-0.875 1.225-1.548 1.612-0.669 0.383-1.471 0.574-2.406 0.574zM66.973 9.903c0.34 0 0.628-0.104 0.864-0.313s0.416-0.499 0.539-0.87c0.128-0.371 0.191-0.8 0.191-1.287 0-0.495-0.064-0.928-0.191-1.299-0.123-0.371-0.303-0.661-0.539-0.87s-0.524-0.313-0.864-0.313c-0.352 0-0.649 0.104-0.893 0.313-0.24 0.209-0.423 0.499-0.551 0.87-0.123 0.371-0.185 0.804-0.185 1.299 0 0.487 0.062 0.916 0.185 1.287 0.128 0.371 0.311 0.661 0.551 0.87 0.244 0.209 0.541 0.313 0.893 0.313z"></path>
<path d="M77.064 12.042c-0.935 0-1.739-0.191-2.412-0.574-0.669-0.386-1.185-0.924-1.548-1.612-0.359-0.692-0.539-1.494-0.539-2.406 0-0.916 0.18-1.718 0.539-2.406 0.363-0.692 0.879-1.229 1.548-1.612 0.673-0.387 1.477-0.58 2.412-0.58s1.737 0.193 2.406 0.58c0.673 0.383 1.189 0.92 1.548 1.612 0.363 0.688 0.545 1.49 0.545 2.406 0 0.912-0.182 1.714-0.545 2.406-0.359 0.688-0.875 1.225-1.548 1.612-0.669 0.383-1.471 0.574-2.406 0.574zM77.081 9.903c0.34 0 0.628-0.104 0.864-0.313s0.416-0.499 0.539-0.87c0.128-0.371 0.191-0.8 0.191-1.287 0-0.495-0.064-0.928-0.191-1.299-0.123-0.371-0.303-0.661-0.539-0.87s-0.524-0.313-0.864-0.313c-0.352 0-0.649 0.104-0.893 0.313-0.24 0.209-0.423 0.499-0.551 0.87-0.123 0.371-0.185 0.804-0.185 1.299 0 0.487 0.062 0.916 0.185 1.287 0.128 0.371 0.311 0.661 0.551 0.87 0.244 0.209 0.541 0.313 0.893 0.313z"></path>
<path d="M18.74 22.249v-2.331h10.036v2.331h-3.6v9.543h-2.829v-9.543h-3.606z"></path>
<path d="M33.049 31.96c-0.932 0-1.736-0.184-2.412-0.551-0.673-0.371-1.19-0.899-1.554-1.583-0.359-0.688-0.539-1.506-0.539-2.452 0-0.92 0.182-1.724 0.545-2.412 0.363-0.692 0.875-1.229 1.536-1.612 0.661-0.387 1.44-0.58 2.336-0.58 0.634 0 1.214 0.099 1.739 0.296s0.98 0.489 1.363 0.875c0.382 0.387 0.68 0.864 0.893 1.432 0.213 0.564 0.319 1.212 0.319 1.942v0.707h-7.74v-1.647h5.102c-0.004-0.302-0.075-0.57-0.215-0.806s-0.33-0.419-0.574-0.551c-0.24-0.135-0.516-0.203-0.829-0.203-0.317 0-0.601 0.071-0.852 0.215-0.251 0.139-0.45 0.33-0.597 0.574-0.147 0.24-0.224 0.512-0.232 0.817v1.676c0 0.363 0.072 0.682 0.215 0.957 0.143 0.271 0.346 0.481 0.609 0.632s0.576 0.226 0.939 0.226c0.251 0 0.479-0.035 0.684-0.104s0.381-0.172 0.527-0.307c0.147-0.135 0.257-0.302 0.33-0.499l2.603 0.075c-0.108 0.584-0.346 1.092-0.713 1.525-0.363 0.429-0.841 0.763-1.432 1.003-0.591 0.236-1.275 0.354-2.052 0.354z"></path>
<path d="M46.498 25.606l-2.603 0.070c-0.027-0.186-0.101-0.35-0.22-0.493-0.12-0.147-0.276-0.261-0.47-0.342-0.189-0.085-0.41-0.128-0.661-0.128-0.328 0-0.609 0.066-0.841 0.197-0.228 0.131-0.34 0.309-0.336 0.533-0.004 0.174 0.066 0.325 0.209 0.452 0.147 0.128 0.408 0.23 0.783 0.307l1.716 0.325c0.889 0.17 1.55 0.452 1.983 0.846 0.437 0.394 0.657 0.916 0.661 1.565-0.004 0.611-0.185 1.142-0.545 1.594-0.356 0.452-0.842 0.804-1.461 1.055-0.618 0.247-1.326 0.371-2.122 0.371-1.272 0-2.275-0.261-3.009-0.783-0.73-0.526-1.148-1.229-1.252-2.11l2.8-0.070c0.062 0.325 0.222 0.572 0.481 0.742s0.59 0.255 0.992 0.255c0.363 0 0.659-0.068 0.887-0.203s0.344-0.315 0.348-0.539c-0.004-0.201-0.093-0.361-0.267-0.481-0.174-0.124-0.446-0.22-0.818-0.29l-1.554-0.296c-0.893-0.162-1.558-0.462-1.994-0.899-0.437-0.441-0.653-1.001-0.649-1.681-0.004-0.595 0.155-1.104 0.475-1.525 0.321-0.425 0.777-0.75 1.368-0.974s1.289-0.336 2.093-0.336c1.206 0 2.157 0.253 2.853 0.759 0.696 0.502 1.080 1.194 1.154 2.076z"></path>
<path d="M53.141 22.887v2.087h-5.618v-2.087h5.618zM48.7 20.753h2.835v8.239c0 0.174 0.027 0.315 0.081 0.423 0.058 0.104 0.141 0.18 0.249 0.226 0.108 0.043 0.238 0.064 0.388 0.064 0.108 0 0.222-0.010 0.342-0.029 0.124-0.023 0.217-0.043 0.278-0.058l0.429 2.047c-0.135 0.039-0.327 0.087-0.574 0.145-0.243 0.058-0.535 0.095-0.875 0.11-0.665 0.031-1.235-0.046-1.71-0.232-0.471-0.189-0.833-0.483-1.084-0.881-0.248-0.398-0.367-0.899-0.359-1.502v-8.552z"></path>
</symbol>
<symbol id="alert" viewBox="0 0 32 32">
<path stroke-linejoin="round" stroke-linecap="round" stroke-miterlimit="4" stroke-width="2.6667" d="M16 29.333c7.364 0 13.333-5.97 13.333-13.333s-5.97-13.333-13.333-13.333c-7.364 0-13.333 5.97-13.333 13.333s5.97 13.333 13.333 13.333z"></path>
<path stroke-linejoin="round" stroke-linecap="round" stroke-miterlimit="4" stroke-width="2.6667" d="M16 10.667v5.333"></path>
<path stroke-linejoin="round" stroke-linecap="round" stroke-miterlimit="4" stroke-width="2.6667" d="M16 21.333h0.013"></path>
</symbol>
<symbol id="arrow" viewBox="0 0 32 32">
<path stroke-linejoin="round" stroke-linecap="round" stroke-miterlimit="4" stroke-width="2.6667" d="M8 12l8 8 8-8"></path>
</symbol>
<symbol id="logo-picture" viewBox="0 0 32 32">
<path d="M16 32c-8.823 0-16-7.177-16-16s7.177-16 16-16c8.823 0 16 7.177 16 16s-7.177 16-16 16zM16 2.31c-7.548 0-13.69 6.141-13.69 13.69s6.141 13.69 13.69 13.69c7.548 0 13.69-6.141 13.69-13.69s-6.141-13.69-13.69-13.69z"></path>
<path d="M12.394 10.667l3.191 10.417h0.118l3.191-10.417h3.86l-4.815 14.222h-4.592l-4.815-14.222h3.86z"></path>
</symbol>
</defs>
</svg>
